<?xml version="1.0" standalone="no"?>
<!DOCTYPE svg PUBLIC "-//W3C//DTD SVG 20010904//EN"
 "http://www.w3.org/TR/2001/REC-SVG-20010904/DTD/svg10.dtd">
<svg version="1.0" xmlns="http://www.w3.org/2000/svg"
 width="1024.000000pt" height="1024.000000pt" viewBox="0 0 1024.000000 1024.000000"
 preserveAspectRatio="xMidYMid meet">

<g transform="translate(0.000000,1024.000000) scale(0.100000,-0.100000)"
fill="#000000" stroke="none">
<path d="M4945 9263 c-127 -9 -402 -54 -538 -88 -170 -43 -403 -128 -597 -218
-97 -45 -257 -150 -292 -191 -15 -18 -57 -50 -93 -72 -116 -67 -208 -194 -237
-326 -14 -62 -20 -3014 -8 -3503 8 -314 10 -327 69 -420 77 -123 169 -185 301
-203 98 -14 1407 -23 2011 -14 l465 7 76 38 c141 69 203 146 244 299 17 62 17
70 2 100 -9 18 -71 92 -138 163 -155 163 -219 241 -236 282 -23 53 -17 114 15
174 l29 55 -120 123 -120 123 -54 -4 c-30 -3 -54 -3 -54 -2 0 2 20 12 43 23
24 11 50 27 57 36 7 8 19 15 27 15 8 0 89 -75 179 -167 164 -166 164 -167 145
-187 -27 -28 -61 -105 -61 -137 0 -14 10 -40 23 -57 42 -58 765 -814 859 -899
32 -29 122 -117 200 -196 116 -117 156 -151 213 -179 181 -92 332 -74 473 57
114 106 163 236 142 382 -16 115 -45 164 -183 309 -566 596 -1061 1099 -1099
1120 -41 21 -130 18 -161 -6 -14 -11 -27 -20 -30 -20 -3 0 -16 17 -28 38 -13
20 -76 92 -141 160 -65 68 -118 130 -118 137 0 8 7 18 15 22 17 10 115 190
157 288 99 236 131 390 131 650 1 210 -13 284 -93 515 l-48 141 5 147 c3 93 1
157 -5 174 -6 15 -57 66 -114 115 -56 48 -222 207 -368 351 -146 145 -278 271
-295 280 -27 15 -94 18 -603 22 -369 3 -573 9 -574 15 -4 24 95 55 277 86 178
31 204 33 415 32 309 -1 418 -14 764 -93 130 -29 442 -171 629 -287 237 -145
497 -385 671 -617 212 -283 352 -578 435 -918 66 -267 74 -337 75 -648 1 -251
-2 -302 -22 -427 -22 -136 -50 -243 -51 -198 -1 12 -7 27 -13 34 -11 10 -9 11
7 6 16 -6 17 -5 5 4 -22 16 -50 13 -50 -4 0 -9 -12 -18 -30 -21 -27 -6 -32
-13 -50 -73 -31 -99 -113 -262 -159 -315 -23 -26 -41 -55 -41 -65 0 -17 99
-116 194 -194 25 -21 66 -66 90 -100 25 -34 69 -81 99 -104 l55 -42 24 37 c86
130 168 314 238 528 62 192 74 241 99 389 60 359 63 648 10 1000 -66 448 -255
904 -540 1307 -337 475 -859 865 -1419 1059 -194 68 -419 118 -645 144 -115
13 -403 18 -540 8z m440 -133 c550 -40 1061 -235 1480 -563 246 -193 345 -292
532 -533 143 -183 295 -455 397 -709 125 -312 214 -772 204 -1058 -3 -78 -9
-132 -16 -139 -9 -9 -12 -9 -12 1 0 7 -4 9 -10 6 -22 -14 -79 34 -80 68 0 18
-15 23 -25 7 -3 -5 -8 -56 -10 -112 -2 -57 -11 -123 -19 -148 -15 -45 -15 -45
-8 40 4 47 7 189 6 315 -1 181 -6 260 -22 371 -61 398 -195 751 -415 1095
-308 479 -731 829 -1257 1039 -510 204 -1138 234 -1680 79 -164 -46 -285 -105
-274 -134 9 -23 -25 -26 -266 -23 l-225 3 50 32 c159 100 390 193 690 274 320
87 614 114 960 89z m34 -594 c-1 -61 -12 -99 -22 -73 -10 27 -72 35 -297 42
-196 7 -394 -5 -525 -29 -11 -2 -47 0 -80 5 -33 5 -240 11 -461 15 l-400 6
-52 -26 c-28 -14 -68 -41 -88 -58 -84 -74 -152 -218 -164 -353 l-7 -70 -4 100
c-7 214 -4 245 30 315 35 73 53 96 96 127 73 51 61 51 1053 50 l922 -1 -1 -50z
m436 -277 c149 -144 287 -273 308 -287 20 -13 37 -29 37 -33 0 -5 -42 -9 -94
-9 -52 0 -128 -4 -168 -9 -40 -6 -132 -13 -204 -16 l-131 -7 -11 44 c-14 55
-28 578 -16 578 5 0 131 -118 279 -261z m-610 106 c152 -24 175 -32 176 -58 2
-33 5 -107 5 -107 -1 0 -37 12 -81 25 -198 62 -561 37 -785 -54 -213 -87 -451
-279 -575 -465 -252 -379 -292 -833 -110 -1231 165 -359 533 -641 929 -710
375 -65 791 69 1063 343 162 163 275 359 329 567 27 102 29 123 29 295 -1 114
-6 208 -14 245 -25 113 -73 250 -127 358 -61 121 -112 184 -152 189 -15 2 31
7 101 12 71 4 131 5 135 2 3 -4 7 -17 9 -29 2 -12 23 -65 47 -117 100 -216
144 -384 153 -590 9 -207 -30 -473 -75 -507 -9 -7 -12 -13 -7 -13 4 0 1 -8 -8
-17 -8 -10 -15 -20 -15 -23 0 -3 -9 -35 -20 -72 -22 -71 -64 -143 -89 -152 -9
-4 -12 -13 -8 -26 7 -23 -11 -45 -49 -59 -17 -7 -26 -7 -30 2 -4 7 -4 -5 -2
-26 6 -45 -1 -67 -20 -67 -8 0 -14 -7 -14 -15 0 -22 -165 -184 -231 -227 -61
-40 -165 -99 -174 -98 -3 0 -19 -7 -35 -15 -17 -9 -36 -13 -43 -9 -7 4 -9 4
-5 -1 9 -9 -40 -37 -52 -30 -5 3 -10 1 -12 -5 -1 -5 -29 -19 -61 -30 -69 -25
-127 -19 -127 11 0 23 -7 23 -100 -1 -41 -11 -86 -20 -100 -20 -14 0 -43 -7
-65 -15 l-40 -15 37 2 c20 1 40 -1 44 -5 4 -4 -11 -7 -34 -7 -23 0 -42 -4 -42
-9 0 -8 -38 -11 -152 -13 -63 0 -273 60 -373 109 -52 25 -92 49 -90 54 3 4 21
1 40 -7 44 -18 55 -18 55 2 0 11 6 14 23 10 12 -3 -3 6 -33 20 -30 14 -61 30
-67 36 -18 15 -16 2 3 -16 10 -11 11 -16 3 -16 -6 0 -17 -8 -24 -17 -12 -17
-15 -17 -49 0 -40 18 -47 42 -16 50 24 6 25 3 5 -16 -12 -13 -12 -15 5 -20 11
-3 24 1 30 8 8 10 3 20 -24 42 -20 15 -36 33 -36 40 0 15 -30 32 -48 27 -7 -1
-8 0 -2 3 17 8 0 23 -26 23 -14 0 -35 -5 -46 -11 -17 -9 -18 -13 -7 -20 11 -7
11 -9 -3 -9 -10 0 -69 51 -131 113 -132 130 -223 261 -300 431 -133 295 -151
647 -51 970 37 118 154 349 224 441 85 112 239 266 331 331 148 104 389 197
581 224 88 12 304 5 423 -15z m-614 -325 c-35 -17 -68 -30 -72 -30 -5 0 -8 -3
-8 -7 4 -26 -3 -43 -18 -43 -17 -1 -17 -1 0 -11 12 -7 22 -7 30 0 9 7 13 5 13
-9 0 -10 -12 -25 -26 -32 -14 -7 -47 -25 -73 -41 -43 -24 -48 -25 -42 -8 4 13
-3 26 -23 42 l-28 24 60 38 c71 46 203 106 231 106 11 0 -9 -13 -44 -29z m348
-51 c35 -12 51 -35 51 -72 0 -28 -12 -40 -55 -55 -16 -6 -23 -11 -14 -11 8 -1
26 -13 40 -27 20 -21 24 -38 27 -99 l4 -74 -51 -54 c-116 -122 -262 -153 -411
-85 -67 30 -123 76 -116 94 22 57 -133 -90 -174 -166 -45 -80 -115 -93 -147
-26 -23 49 -12 76 66 164 244 277 356 351 616 407 76 17 124 18 164 4z m651
-244 c0 -1 -9 -5 -20 -8 -12 -3 -20 0 -20 8 0 8 8 11 20 8 11 -3 20 -7 20 -8z
m220 5 c-8 -5 -60 -9 -115 -8 l-100 2 80 6 c136 11 152 11 135 0z m-1893 -422
c-3 -8 -6 -5 -6 6 -1 11 2 17 5 13 3 -3 4 -12 1 -19z m1805 -4 c89 -8 127 -27
165 -83 29 -44 29 -77 -1 -122 -48 -70 -50 -70 -447 -58 -195 6 -460 8 -589 5
-129 -4 -365 -7 -525 -7 -259 -1 -294 1 -327 16 -21 11 -42 30 -49 47 -6 15
-15 28 -20 28 -5 0 -9 5 -9 11 0 5 5 7 10 4 6 -3 10 3 10 13 0 48 51 131 90
145 22 8 1599 8 1692 1z m-1818 -56 c-7 -52 -34 -148 -40 -148 -3 0 -2 17 1
38 7 43 37 152 42 152 2 0 0 -19 -3 -42z m75 -339 c23 14 109 16 921 16 877 0
896 0 929 -20 90 -53 96 -193 9 -239 -31 -16 -89 -17 -918 -13 -487 2 -898 7
-914 12 l-28 8 7 -54 c13 -102 -92 -91 925 -93 864 -1 896 -2 923 -20 16 -11
39 -35 52 -54 l23 -34 31 53 c17 30 31 49 31 43 0 -38 -205 -324 -233 -324 -6
0 1 11 16 25 15 14 27 36 27 48 1 12 7 45 14 72 8 28 11 53 7 58 -10 10 -1648
10 -1666 0 -23 -13 22 -112 64 -140 19 -13 39 -33 45 -45 6 -11 24 -31 39 -42
28 -21 37 -21 610 -23 368 -2 619 -7 682 -14 l99 -12 -42 -36 c-99 -86 -332
-185 -495 -211 -112 -18 -349 -8 -447 20 -87 25 -230 90 -314 144 -67 43 -286
254 -319 306 -12 19 -35 54 -53 76 -57 76 -144 361 -144 474 l0 38 47 -18 c44
-16 49 -17 72 -1z m2058 -191 c-3 -8 -6 -5 -6 6 -1 11 2 17 5 13 3 -3 4 -12 1
-19z m-12 -58 c-4 -17 -9 -30 -11 -27 -2 2 -1 18 2 36 4 17 9 30 11 27 3 -2 2
-19 -2 -36z m-24 -71 c-5 -13 -10 -19 -10 -12 -1 15 10 45 15 40 3 -2 0 -15
-5 -28z m-2291 -500 c16 -23 32 -51 36 -63 4 -11 9 -23 13 -26 3 -3 24 -25 46
-50 21 -25 55 -58 75 -74 31 -25 32 -28 10 -21 -14 3 -33 9 -43 12 -9 2 -61
-1 -114 -8 l-96 -12 -34 39 c-19 21 -37 44 -41 49 -18 26 20 147 55 175 38 30
59 25 93 -21z m2543 -388 c124 -145 115 -126 77 -166 -19 -19 -39 -35 -46 -35
-7 0 -15 -8 -19 -17 -3 -10 -17 -31 -31 -47 l-25 -29 -163 161 -162 161 28 21
c16 12 33 18 38 15 6 -4 9 -2 8 4 -2 6 24 37 57 69 l60 58 48 -50 c27 -27 85
-92 130 -145z m-2030 90 c15 -6 27 -16 27 -22 0 -14 -64 26 -68 43 -3 10 -1
10 5 1 5 -6 21 -16 36 -22z m-122 -92 c52 -34 111 -73 132 -86 22 -13 37 -26
35 -28 -2 -3 -25 2 -50 10 -48 14 -203 23 -215 12 -3 -4 20 -34 51 -67 31 -34
56 -65 56 -71 0 -5 -93 -9 -231 -9 -196 0 -235 2 -259 16 -34 21 -60 63 -60
99 0 34 54 130 78 140 9 3 81 9 160 12 94 4 148 11 160 19 29 22 46 16 143
-47z m2519 -168 c11 -28 10 -33 -14 -62 -33 -39 -33 -45 4 -64 29 -15 33 -15
60 5 22 16 34 18 47 11 23 -12 569 -563 734 -741 69 -74 166 -179 216 -232 95
-102 131 -166 119 -211 -7 -28 -40 -41 -67 -26 -25 13 -39 11 -39 -5 0 -18
-22 -26 -76 -26 -33 0 -44 4 -44 15 0 9 -5 21 -10 28 -24 28 -61 83 -66 100
-4 9 -12 17 -19 17 -8 0 -16 8 -20 19 -3 10 -14 26 -25 36 -11 10 -20 26 -20
36 0 11 -10 20 -30 24 -16 4 -30 13 -30 21 0 8 -5 14 -11 14 -6 0 -38 29 -71
64 -33 36 -69 66 -81 68 -13 2 -30 18 -42 40 -11 22 -28 38 -37 38 -11 0 -18
8 -18 20 0 13 -7 20 -20 20 -12 0 -20 7 -20 16 0 18 -105 120 -132 130 -10 3
-18 11 -18 18 0 13 -54 69 -64 67 -11 -2 -61 33 -90 64 -16 16 -25 23 -21 15
4 -8 -1 -6 -12 6 -11 11 -35 26 -52 34 -17 7 -31 18 -31 24 0 6 -23 24 -51 39
-28 16 -53 36 -56 45 -2 10 -19 23 -36 29 -126 45 -150 52 -156 49 -4 -3 -12
-1 -19 3 -7 4 19 40 75 101 47 52 103 114 124 137 65 71 94 74 119 14z m914
-55 c-3 -15 -8 -25 -11 -23 -2 3 -1 17 3 31 3 15 8 25 11 23 2 -3 1 -17 -3
-31z m-2559 -130 c50 0 230 1 400 2 171 1 324 2 342 2 22 0 44 -10 69 -32 89
-78 84 -194 -11 -233 -25 -11 -233 -13 -1084 -9 -650 2 -1059 8 -1070 14 -23
12 -54 76 -54 110 0 32 30 110 49 130 22 23 121 25 724 20 300 -2 586 -4 635
-4z m2616 -129 c-10 -9 -11 -8 -5 6 3 10 9 15 12 12 3 -3 0 -11 -7 -18z
m-1404 -84 c-3 -10 -5 -2 -5 17 0 19 2 27 5 18 2 -10 2 -26 0 -35z m-1455
-218 c75 -56 78 -150 7 -216 -17 -16 -25 -29 -18 -29 7 0 9 -3 6 -6 -4 -4 -14
-1 -22 6 -13 10 -131 14 -558 16 l-542 2 -22 44 c-12 23 -22 56 -22 71 -2 56
51 122 104 130 17 2 257 4 535 3 488 -1 506 -2 532 -21z m1083 5 c18 -11 43
-39 55 -63 l23 -44 -24 -43 c-15 -28 -39 -51 -64 -64 -39 -20 -53 -21 -418
-20 -336 1 -379 3 -395 18 -10 9 -22 14 -25 11 -4 -3 -5 -2 -2 1 2 4 -2 19
-10 35 -19 35 -19 67 -1 110 15 35 39 62 66 72 8 3 183 6 389 6 357 1 375 0
406 -19z m-2411 -184 c3 -22 5 -49 4 -60 -1 -18 -2 -18 -15 0 -25 33 -54 94
-49 103 3 5 17 6 30 4 21 -4 26 -12 30 -47z"/>
<path d="M5666 8195 c3 -93 7 -175 9 -182 5 -16 62 -22 241 -26 l151 -3 -60
44 c-33 24 -125 110 -204 191 l-144 146 7 -170z"/>
<path d="M3811 6384 c7 -20 104 -164 111 -164 4 0 -14 30 -39 68 -69 100 -75
108 -72 96z"/>
<path d="M3930 6206 c0 -2 8 -10 18 -17 15 -13 16 -12 3 4 -13 16 -21 21 -21
13z"/>
<path d="M6042 6144 c-7 -8 -8 -14 -3 -14 10 0 25 19 20 25 -2 1 -10 -3 -17
-11z"/>
<path d="M5920 6017 c-41 -39 -54 -54 -29 -34 26 20 50 33 54 29 5 -4 5 -2 2
4 -4 7 0 18 9 25 12 10 20 10 35 1 10 -7 19 -9 19 -5 0 5 3 17 6 29 10 38 -20
23 -96 -49z"/>
<path d="M5585 5796 c-44 -23 -98 -50 -120 -59 l-40 -16 35 4 c19 2 36 9 38
14 2 6 19 13 38 17 19 3 34 10 34 14 0 4 20 16 45 27 25 10 47 24 50 31 2 6 3
12 2 11 -1 0 -38 -20 -82 -43z"/>
<path d="M4603 5707 c15 -6 27 -15 27 -20 0 -4 4 -5 10 -2 6 3 7 -1 4 -9 -7
-18 -15 -20 -30 -8 -5 4 -1 -1 9 -10 24 -22 51 -24 43 -3 -3 10 3 17 21 22
l27 6 -34 12 c-19 7 -51 14 -70 17 -34 6 -34 6 -7 -5z"/>
<path d="M4868 7193 c17 -2 47 -2 65 0 17 2 3 4 -33 4 -36 0 -50 -2 -32 -4z"/>
<path d="M6026 5822 c-2 -4 4 -14 15 -20 19 -12 19 -11 9 8 -12 22 -16 24 -24
12z"/>
<path d="M5953 5754 c-3 -10 4 -26 21 -42 22 -22 26 -24 26 -9 0 10 -4 15 -10
12 -6 -4 -10 7 -10 24 0 33 -16 42 -27 15z"/>
<path d="M7665 8738 c11 -6 35 -25 54 -42 28 -26 32 -27 22 -8 -12 23 -67 62
-86 62 -5 0 -1 -6 10 -12z"/>
<path d="M7496 8674 c-10 -14 -16 -32 -14 -39 2 -8 11 3 20 25 19 46 17 51 -6
14z"/>
<path d="M2987 8413 c-386 -431 -640 -885 -766 -1364 -130 -493 -130 -990 -1
-1494 128 -498 374 -923 754 -1301 315 -313 651 -539 1074 -718 248 -106 481
-172 719 -203 205 -27 554 -24 773 5 360 49 690 162 1026 352 130 74 365 228
418 275 l28 26 -25 38 c-14 20 -48 59 -76 87 -118 112 -285 286 -318 331 -20
26 -54 67 -76 90 l-41 42 -21 -67 c-34 -106 -82 -187 -149 -250 -95 -88 -137
-106 -418 -176 -295 -75 -390 -86 -710 -86 -320 0 -520 24 -749 90 -120 34
-301 54 -419 46 -90 -6 -147 -6 -377 -1 -161 3 -244 22 -326 75 -63 40 -91 71
-135 149 -43 78 -72 177 -72 249 0 29 -6 68 -14 86 -13 31 -13 33 4 29 15 -4
17 4 18 64 2 86 -4 101 -101 252 -76 118 -193 338 -266 500 -29 65 -35 72 -47
59 -23 -23 -21 -52 10 -121 9 -21 14 -43 10 -49 -4 -6 -3 -8 4 -4 6 3 16 -7
23 -23 7 -16 17 -27 21 -25 4 3 8 -5 8 -18 0 -13 7 -32 15 -42 8 -11 15 -32
15 -47 0 -160 -175 324 -219 606 -48 307 -40 683 20 960 69 322 240 710 429
975 37 52 75 109 84 127 16 33 20 125 7 172 -6 23 -9 21 -60 -35 -120 -131
-367 -545 -449 -754 -62 -157 -121 -350 -145 -475 -46 -235 -52 -298 -51 -565
0 -225 3 -275 27 -430 15 -96 30 -185 33 -196 5 -18 2 -21 -20 -19 -14 2 -26
0 -26 -5 0 -4 -9 -10 -20 -13 -21 -5 -34 11 -51 62 -6 17 -7 2 -4 -44 7 -94
-7 -60 -39 97 -41 208 -50 308 -50 583 0 332 22 488 110 789 117 397 363 837
650 1161 l62 71 3 92 c2 51 1 92 -2 92 -3 0 -49 -48 -102 -107z m3354 -4547
c-12 -14 -71 -39 -71 -31 0 4 70 44 79 45 2 0 -2 -6 -8 -14z"/>
<path d="M2390 8469 c-96 -3 -181 -7 -188 -8 -24 -2 -62 -53 -62 -82 0 -18 11
-42 29 -61 l29 -33 208 1 208 2 28 31 c39 43 38 92 -1 132 -18 17 -39 28 -53
27 -13 -1 -102 -5 -198 -9z"/>
<path d="M7700 8385 c-14 -8 -20 -14 -15 -14 6 0 21 6 35 14 14 8 21 14 15 14
-5 0 -21 -6 -35 -14z"/>
<path d="M7598 8363 c12 -2 30 -2 40 0 9 3 -1 5 -23 4 -22 0 -30 -2 -17 -4z"/>
<path d="M2067 8081 c-90 -6 -101 -8 -121 -32 -20 -23 -22 -33 -16 -83 7 -65
22 -84 76 -96 54 -13 281 -12 328 1 21 6 52 25 67 42 32 35 35 44 15 44 -7 0
-13 -7 -12 -16 1 -9 -5 -15 -11 -13 -7 1 -13 -2 -13 -7 0 -4 -10 -7 -22 -6
-13 1 -31 3 -40 4 -11 0 -18 9 -18 21 0 11 -4 20 -10 20 -5 0 -10 9 -10 20 0
13 -7 20 -20 20 -13 0 -20 7 -20 19 0 10 9 21 20 24 33 9 22 27 -17 29 -28 1
-23 3 22 8 60 7 60 7 -20 7 -44 -1 -124 -3 -178 -6z m-120 -103 c-3 -8 -6 -5
-6 6 -1 11 2 17 5 13 3 -3 4 -12 1 -19z"/>
<path d="M7993 8083 c-122 -4 -122 -4 -147 -34 -42 -50 -29 -121 30 -168 25
-20 39 -21 215 -21 l188 0 35 30 c40 36 52 76 36 124 -19 59 -39 69 -142 71
-51 1 -148 0 -215 -2z"/>
<path d="M7020 7241 c-126 -41 -203 -133 -204 -246 -1 -128 103 -230 246 -242
147 -14 258 92 258 245 0 57 -4 70 -37 119 -63 96 -180 151 -263 124z m130
-186 c14 -13 20 -31 20 -63 0 -38 -5 -49 -34 -77 -19 -18 -47 -36 -63 -40 -24
-6 -33 -1 -65 34 -50 53 -51 93 -6 140 30 30 37 33 80 29 27 -3 57 -13 68 -23z"/>
<path d="M8305 7071 c-16 -11 -37 -31 -47 -43 -35 -45 -16 -124 38 -167 26
-20 37 -21 337 -21 l309 0 39 39 c34 33 39 45 39 83 0 36 -6 52 -34 84 l-34
39 -308 3 c-294 2 -310 1 -339 -17z"/>
<path d="M1308 7057 c-47 -40 -61 -97 -36 -151 26 -59 37 -61 350 -64 315 -3
325 -2 367 57 33 46 28 94 -15 141 l-36 40 -302 0 c-297 0 -301 0 -328 -23z"/>
<path d="M7573 6850 c0 -25 2 -35 4 -22 2 12 2 32 0 45 -2 12 -4 2 -4 -23z"/>
<path d="M1723 6540 c-19 -8 -21 -13 -13 -39 6 -20 5 -31 -3 -34 -16 -5 21
-87 40 -87 7 0 13 -4 13 -10 0 -5 -7 -10 -15 -10 -8 0 -15 -9 -15 -20 0 -11
-4 -20 -10 -20 -16 0 -11 -19 8 -29 27 -14 112 6 112 27 0 12 -3 13 -12 4 -7
-7 -16 -12 -21 -12 -5 0 -1 8 9 17 15 16 17 16 30 -2 11 -15 16 -16 29 -5 9 8
23 27 31 44 l15 31 -26 -29 c-14 -15 -29 -25 -32 -22 -4 3 1 12 9 19 17 13 14
77 -3 77 -5 0 -9 6 -9 14 0 8 -6 17 -12 20 -7 4 2 4 20 1 36 -5 41 6 13 34
-34 34 -113 49 -158 31z"/>
<path d="M8412 6533 c-67 -33 -111 -129 -82 -182 30 -57 121 -76 213 -45 56
19 77 45 77 97 0 116 -105 181 -208 130z"/>
<path d="M1880 6453 c0 -5 5 -15 10 -23 9 -13 10 -13 11 0 0 8 5 4 9 -10 7
-21 8 -22 9 -4 1 11 -4 25 -11 32 -13 13 -28 16 -28 5z"/>
<path d="M7575 5910 c3 -5 8 -10 11 -10 2 0 4 5 4 10 0 6 -5 10 -11 10 -5 0
-7 -4 -4 -10z"/>
<path d="M7564 5866 c-3 -7 -4 -35 -2 -62 3 -46 4 -47 21 -30 23 23 24 106 2
106 -9 0 -18 -6 -21 -14z"/>
<path d="M8832 5312 c-8 -6 -2 -9 18 -9 20 0 26 3 18 9 -7 4 -15 8 -18 8 -3 0
-11 -4 -18 -8z"/>
<path d="M8313 5003 c32 -2 81 -2 110 0 29 2 3 3 -58 3 -60 0 -84 -1 -52 -3z"/>
<path d="M8058 4993 c23 -2 61 -2 85 0 23 2 4 4 -43 4 -47 0 -66 -2 -42 -4z"/>
<path d="M8378 4983 c7 -3 16 -2 19 1 4 3 -2 6 -13 5 -11 0 -14 -3 -6 -6z"/>
<path d="M8218 4963 c7 -3 16 -2 19 1 4 3 -2 6 -13 5 -11 0 -14 -3 -6 -6z"/>
<path d="M8262 4633 c-41 -20 -82 -72 -82 -103 0 -36 41 -98 76 -115 41 -19
47 -19 93 5 38 19 71 74 71 118 0 31 -40 83 -75 98 -42 17 -42 17 -83 -3z"/>
<path d="M2400 4293 c-61 -22 -146 -109 -161 -165 -31 -117 -3 -224 80 -301
64 -60 123 -81 208 -75 114 8 193 60 242 160 25 50 31 73 31 127 -1 117 -45
192 -137 238 -71 34 -193 42 -263 16z m196 -158 c44 -33 62 -90 46 -143 -17
-57 -52 -85 -115 -90 -46 -4 -57 -1 -85 23 -83 70 -76 175 16 225 46 25 92 20
138 -15z"/>
<path d="M2962 3790 c0 -19 2 -27 5 -17 2 9 2 25 0 35 -3 9 -5 1 -5 -18z"/>
<path d="M8616 3187 c-13 -17 -30 -45 -36 -62 l-11 -29 -22 43 c-24 47 -59 76
-80 68 -11 -4 -12 -18 -6 -59 4 -29 8 -74 8 -100 1 -35 5 -48 16 -48 10 0 15
16 17 63 l3 62 23 -42 c12 -24 28 -43 35 -43 14 0 57 60 57 80 0 16 14 4 16
-13 0 -7 2 -33 2 -59 2 -41 5 -48 22 -48 19 0 20 7 20 104 0 85 -3 105 -16
110 -22 8 -20 9 -48 -27z"/>
<path d="M4335 3136 c-142 -45 -235 -156 -235 -282 0 -56 37 -137 82 -181 52
-51 98 -72 249 -113 64 -18 131 -40 148 -51 59 -36 50 -108 -16 -136 -72 -30
-187 2 -313 87 l-75 50 -69 -71 c-80 -81 -81 -79 7 -149 57 -46 174 -101 259
-121 76 -18 225 -8 279 19 114 56 189 164 189 272 0 67 -20 130 -55 176 -35
46 -147 98 -289 134 -129 32 -161 47 -171 81 -5 16 1 29 24 53 30 29 35 31
109 31 72 0 82 -3 159 -45 95 -50 80 -55 154 55 22 32 44 62 50 66 25 15 -124
100 -218 124 -69 18 -213 19 -268 1z"/>
<path d="M3434 3133 l-262 -3 -7 -133 c-8 -142 1 -817 11 -826 3 -3 170 -6
370 -6 l364 0 0 108 0 107 -254 0 -255 0 -3 85 -3 85 201 0 c111 0 215 3 232
6 l31 6 -2 99 -2 99 -227 0 -228 0 0 83 0 84 193 -4 c105 -2 218 0 250 3 l57
6 0 104 0 104 -102 -2 c-57 -2 -221 -4 -364 -5z"/>
<path d="M5651 3130 c0 -3 -2 -141 -5 -307 -5 -274 -7 -306 -25 -340 -23 -46
-56 -78 -94 -92 -41 -16 -133 -13 -166 4 -39 20 -78 69 -91 113 -6 21 -10 159
-10 330 l0 292 -115 0 -115 0 0 -297 c0 -328 8 -395 57 -484 96 -178 345 -246
548 -150 108 50 188 138 226 248 17 51 19 85 19 375 l0 318 -115 -2 c-63 -2
-115 -5 -114 -8z"/>
<path d="M6125 3130 c-6 -11 1 -959 7 -965 4 -4 55 -4 113 0 l105 7 1 251 c1
139 4 263 8 276 6 22 7 21 24 -14 29 -60 149 -236 193 -282 35 -37 46 -43 82
-43 32 0 49 7 77 31 38 34 141 184 194 283 l31 59 0 -281 0 -281 108 -3 c59
-2 109 -2 112 0 3 2 5 220 5 485 l0 482 -124 -2 -125 -3 -39 -67 c-22 -38 -71
-126 -110 -198 -39 -71 -83 -149 -97 -172 l-27 -42 -92 154 c-51 85 -113 194
-138 244 l-46 90 -130 -2 c-71 -1 -130 -4 -132 -7z"/>
<path d="M7746 3133 l-319 -3 6 -218 c4 -119 7 -336 7 -482 l0 -265 369 0 369
0 4 100 c3 55 3 103 1 108 -2 4 -123 7 -269 7 l-265 0 2 85 1 85 167 0 c91 0
196 3 234 7 l67 6 0 98 0 99 -230 0 -230 0 0 83 0 82 153 -2 c83 -1 198 1 255
4 l102 5 0 104 0 104 -52 -2 c-29 -2 -197 -4 -372 -5z"/>
<path d="M2123 2913 c4 -120 7 -336 7 -479 0 -241 1 -262 18 -266 9 -2 61 -2
115 0 l98 4 -2 147 -2 146 84 5 c46 3 85 2 87 -1 1 -3 41 -73 88 -155 l86
-150 134 -1 c97 -1 134 2 134 10 0 12 -42 77 -163 255 -31 46 -57 87 -57 91 0
5 13 14 29 21 44 18 98 76 129 139 38 79 38 183 -1 258 -48 93 -134 158 -239
183 -24 5 -157 10 -297 10 l-254 0 6 -217z m519 -18 c61 -45 73 -128 24 -174
-34 -32 -78 -41 -201 -41 l-110 0 0 121 0 120 130 -3 c111 -3 134 -6 157 -23z"/>
<path d="M6340 1923 c-77 -11 -111 -27 -154 -73 -111 -119 -55 -227 157 -303
78 -29 109 -52 105 -81 -7 -50 -104 -57 -191 -15 l-47 23 -50 -49 -51 -50 42
-18 c150 -64 253 -81 308 -53 55 29 131 137 131 187 0 33 -39 108 -65 125 -12
8 -60 27 -106 43 -150 51 -172 69 -127 110 42 40 106 35 170 -11 14 -10 20 -9
36 5 10 9 23 17 29 17 5 0 20 11 33 25 32 34 21 52 -51 87 -53 26 -120 38
-169 31z"/>
<path d="M3067 1830 c-20 -47 -75 -174 -122 -284 -47 -109 -89 -211 -92 -228
l-6 -29 68 3 67 3 25 63 25 62 128 0 127 0 32 -65 32 -65 65 0 c35 0 64 4 64
9 0 11 -172 417 -222 523 l-41 86 -57 4 -57 3 -36 -85z m137 -185 c21 -49 40
-95 42 -101 4 -8 -21 -12 -85 -12 -103 0 -98 -11 -46 103 15 33 31 71 36 84 5
13 11 22 13 20 2 -2 20 -44 40 -94z"/>
<path d="M3583 1753 c4 -91 7 -233 7 -315 l0 -148 60 0 60 0 0 193 1 192 30
-35 c17 -19 84 -106 150 -192 l120 -158 55 0 55 0 -3 312 -3 312 -57 0 -56 1
-7 -186 -7 -186 -52 61 c-28 33 -82 102 -120 151 -132 172 -124 165 -185 165
l-54 0 6 -167z"/>
<path d="M4507 1913 c-25 -4 -34 -15 -64 -81 -19 -42 -48 -111 -65 -152 -16
-41 -39 -95 -50 -119 -11 -24 -39 -95 -63 -158 l-43 -113 69 0 c67 0 70 1 79
28 6 15 17 43 26 63 l16 37 126 4 c145 6 148 5 178 -84 l16 -48 63 0 c35 0 67
4 70 10 3 5 -3 27 -14 49 -11 21 -31 68 -44 103 -13 34 -41 96 -61 136 -20 40
-45 95 -56 123 -11 27 -36 86 -56 129 -40 87 -38 86 -127 73z m76 -260 c21
-49 41 -94 44 -100 4 -10 -15 -13 -76 -13 -54 0 -81 4 -81 11 0 17 64 189 70
189 3 0 22 -39 43 -87z"/>
<path d="M4960 1604 l0 -316 233 4 232 3 3 68 3 67 -166 0 c-125 0 -165 3
-166 13 -1 6 -4 116 -8 242 l-6 230 -62 3 -63 3 0 -317z"/>
<path d="M5443 1913 c-18 -2 -33 -7 -33 -10 0 -13 140 -260 174 -308 l36 -50
0 -117 0 -116 28 -6 c15 -3 43 -8 63 -11 l36 -7 5 109 c6 114 12 134 60 193
54 67 218 293 218 301 0 5 0 12 0 17 0 11 -180 9 -180 -3 -1 -44 -141 -242
-162 -229 -4 3 -31 44 -59 92 -85 146 -90 152 -124 150 -16 -1 -45 -3 -62 -5z"/>
<path d="M6733 1904 c-11 -29 4 -548 17 -582 12 -32 14 -33 54 -26 78 13 86
19 75 56 -5 18 -9 60 -9 94 l0 61 84 -25 84 -25 48 -79 c26 -43 50 -80 53 -82
14 -8 131 19 131 29 0 22 -77 131 -111 159 l-34 27 30 22 c64 47 83 73 95 130
18 77 3 124 -52 171 -83 71 -113 80 -296 82 -132 2 -164 -1 -169 -12z m269
-115 c38 -6 79 -20 93 -31 34 -27 34 -80 0 -113 -21 -22 -33 -25 -92 -25 -37
0 -85 -3 -105 -6 l-38 -7 0 76 c0 101 11 130 48 123 15 -3 57 -11 94 -17z"/>
<path d="M7505 1714 c-62 -32 -64 -40 -18 -86 l42 -41 278 -2 c301 -1 315 1
345 52 15 27 16 32 2 51 -25 36 -76 42 -354 42 -220 0 -270 -3 -295 -16z"/>
<path d="M2106 1699 c-33 -26 -33 -59 0 -93 l27 -26 274 0 275 0 29 29 c35 36
36 50 4 85 l-24 26 -279 0 c-267 0 -280 -1 -306 -21z"/>
</g>
</svg>
